<svg width="56" height="56" viewBox="0 0 56 56" fill="none" xmlns="http://www.w3.org/2000/svg">
<circle cx="29.3585" cy="29.3585" r="21.6415" stroke="black" stroke-width="2"/>
<circle cx="29.6415" cy="29.6415" r="22.6415" fill="black"/>
<path fill-rule="evenodd" clip-rule="evenodd" d="M29.6413 17.01C28.1934 17.01 27.0196 18.1838 27.0196 19.6317V27.4965H19.1549C17.707 27.4965 16.5332 28.6702 16.5332 30.1181C16.5332 31.566 17.707 32.7398 19.1549 32.7398H27.0196V40.1282C27.0196 41.5761 28.1934 42.7499 29.6413 42.7499C31.0892 42.7499 32.2629 41.5761 32.2629 40.1282V32.7398H39.6514C41.0993 32.7398 42.2731 31.566 42.2731 30.1181C42.2731 28.6702 41.0993 27.4965 39.6514 27.4965H32.2629V19.6317C32.2629 18.1838 31.0892 17.01 29.6413 17.01Z" fill="white"/>
</svg>
