<svg width="56" height="56" viewBox="0 0 56 56" fill="none" xmlns="http://www.w3.org/2000/svg">
<circle cx="29.3585" cy="29.3585" r="21.6415" stroke="black" stroke-width="2"/>
<circle cx="26.6415" cy="26.6415" r="21.6415" fill="white" stroke="black" stroke-width="2"/>
<path fill-rule="evenodd" clip-rule="evenodd" d="M26.6413 14.01C25.1934 14.01 24.0196 15.1838 24.0196 16.6317V24.4965H16.1549C14.707 24.4965 13.5332 25.6702 13.5332 27.1181C13.5332 28.566 14.707 29.7398 16.1549 29.7398H24.0196V37.1282C24.0196 38.5761 25.1934 39.7499 26.6413 39.7499C28.0892 39.7499 29.2629 38.5761 29.2629 37.1282V29.7398H36.6514C38.0993 29.7398 39.2731 28.566 39.2731 27.1181C39.2731 25.6702 38.0993 24.4965 36.6514 24.4965H29.2629V16.6317C29.2629 15.1838 28.0892 14.01 26.6413 14.01Z" fill="black"/>
</svg>
